# xmcd
#
# Track frame offsets: 
#        150
#        17797
#        33219
#        50173
#        69057
#        87255
#        103903
#        117284
#        137826
#        152948
#        169906
#
# Disc length: 2436 seconds
#
# Revision: 0
# Processed by: cddbd v1.5.2PL0 Copyright (c) Steve Scherf et al.
# Submitted via: ExactAudioCopy v0.95a4
#
DISCID=9209820b
DTITLE=Dirks Bentley - Long Trip Alone
DYEAR=2006
DGENRE=Country
TTITLE0=Every Mile a Memory
TTITLE1=Can't Live It Down
TTITLE2=Long Trip Alone
TTITLE3=That Don't Make It Easy Loving Me
TTITLE4=Soon as You Can
TTITLE5=Trying to Stop Your Leaving
TTITLE6=Hope for Me Yet
TTITLE7=The Heaven I'm Headed To
TTITLE8=Free and Easy (Down the Road I Go)
TTITLE9=Band of Brothers
TTITLE10=Prodigal Son's Prayer
EXTD=
EXTT0=
EXTT1=
EXTT2=
EXTT3=
EXTT4=
EXTT5=
EXTT6=
EXTT7=
EXTT8=
EXTT9=
EXTT10=
PLAYORDER=
